<?xml version="1.0" encoding="utf-8"?>
<!-- Generator: Adobe Illustrator 19.0.0, SVG Export Plug-In . SVG Version: 6.00 Build 0)  -->
<svg version="1.1" id="Capa_1" xmlns="http://www.w3.org/2000/svg" xmlns:xlink="http://www.w3.org/1999/xlink" x="0px" y="0px"
	 viewBox="-73 165 464 464" style="enable-background:new -73 165 464 464;" xml:space="preserve">
<style type="text/css">
	.st0{fill:#00F2A9;}
	.st1{fill:#4C616D;}
</style>
<rect x="-65" y="333" class="st0" width="448" height="64"/>
<g>
	<path class="st1" d="M319,421c-22.4,0-40,17.6-40,40s17.6,40,40,40s40-17.6,40-40S341.4,421,319,421z M319,485
		c-13.6,0-24-10.4-24-24s10.4-24,24-24s24,10.4,24,24S332.6,485,319,485z"/>
	<path class="st1" d="M-33,565h384c22.4,0,40-17.6,40-40V365v-64v-32c0-22.4-17.6-40-40-40H-33c-22.4,0-40,17.6-40,40v32v64v160
		C-73,547.4-55.4,565-33,565z M351,549H-33c-13.6,0-24-10.4-24-24V373h432v152C375,538.6,364.6,549,351,549z M-57,309h432v48H-57
		V309z M-33,245h384c13.6,0,24,10.4,24,24v24H-57v-24C-57,255.4-46.6,245-33,245z"/>
	<path class="st1" d="M-1,485h-32c-4.8,0-8,3.2-8,8s3.2,8,8,8h32c4.8,0,8-3.2,8-8S3.8,485-1,485z"/>
	<path class="st1" d="M63,485H31c-4.8,0-8,3.2-8,8s3.2,8,8,8h32c4.8,0,8-3.2,8-8S67.8,485,63,485z"/>
	<path class="st1" d="M127,485H95c-4.8,0-8,3.2-8,8s3.2,8,8,8h32c4.8,0,8-3.2,8-8S131.8,485,127,485z"/>
	<path class="st1" d="M191,485h-32c-4.8,0-8,3.2-8,8s3.2,8,8,8h32c4.8,0,8-3.2,8-8S195.8,485,191,485z"/>
	<path class="st1" d="M-33,469H95c4.8,0,8-3.2,8-8s-3.2-8-8-8H-33c-4.8,0-8,3.2-8,8S-37.8,469-33,469z"/>
</g>
</svg>
