<?xml version="1.0" encoding="utf-8"?>
<!-- Generator: Adobe Illustrator 19.0.0, SVG Export Plug-In . SVG Version: 6.00 Build 0)  -->
<svg version="1.1" id="Capa_1" xmlns="http://www.w3.org/2000/svg" xmlns:xlink="http://www.w3.org/1999/xlink" x="0px" y="0px"
	 viewBox="-73 165 464 464" style="enable-background:new -73 165 464 464;" xml:space="preserve">
<style type="text/css">
	.st0{fill:#00F2A9;}
	.st1{fill:#4C616D;}
</style>
<path class="st0" d="M347.5,289.8L305.1,269v352l59.2-296C367.5,310.6,360.3,296.2,347.5,289.8z"/>
<g>
	<path class="st1" d="M350.7,250.6l-38.4-19.2c-2.4-19.2-19.2-34.4-39.2-34.4H88.3c-4-18.4-20-32-39.2-32h-32
		c-19.2,0-36,14.4-39.2,32.8c-18.4,3.2-32.8,20-32.8,39.2v352c0,22.4,17.6,40,40,40h288c21.6,0,40-16.8,40-38.4l0,0l59.2-296
		C375.5,277,366.7,258.6,350.7,250.6z M17.1,181h32c10.4,0,19.2,6.4,22.4,16H-5.3C-2.1,187.4,6.7,181,17.1,181z M297.1,589
		c0,13.6-10.4,24-24,24h-88v-24c0-4.8-3.2-8-8-8s-8,3.2-8,8v24h-16v-56c0-4.8-3.2-8-8-8s-8,3.2-8,8v56h-16v-24c0-4.8-3.2-8-8-8
		s-8,3.2-8,8v24h-80v-24c0-4.8-3.2-8-8-8s-8,3.2-8,8v24h-24c-13.6,0-24-10.4-24-24V237c0-13.6,10.4-24,24-24h88v152
		c0,13.6-10.4,24-24,24s-24-10.4-24-24V237c0-4.8-3.2-8-8-8s-8,3.2-8,8v128c0,22.4,17.6,40,40,40s40-17.6,40-40V213h184
		c13.6,0,24,10.4,24,24V589z M356.3,291.4l-43.2,216.8V249.8l30.4,15.2C353.1,269.8,358.7,281,356.3,291.4z"/>
	<path class="st1" d="M241.1,261h-96c-4.8,0-8,3.2-8,8s3.2,8,8,8h96c4.8,0,8-3.2,8-8S245.9,261,241.1,261z"/>
	<path class="st1" d="M241.1,325h-96c-4.8,0-8,3.2-8,8s3.2,8,8,8h96c4.8,0,8-3.2,8-8S245.9,325,241.1,325z"/>
	<path class="st1" d="M145.1,405h32c4.8,0,8-3.2,8-8s-3.2-8-8-8h-32c-4.8,0-8,3.2-8,8S140.3,405,145.1,405z"/>
	<path class="st1" d="M241.1,389h-32c-4.8,0-8,3.2-8,8s3.2,8,8,8h32c4.8,0,8-3.2,8-8S245.9,389,241.1,389z"/>
	<path class="st1" d="M113.1,485h-96c-4.8,0-8,3.2-8,8s3.2,8,8,8h96c4.8,0,8-3.2,8-8S117.9,485,113.1,485z"/>
	<path class="st1" d="M241.1,485h-96c-4.8,0-8,3.2-8,8s3.2,8,8,8h96c4.8,0,8-3.2,8-8S245.9,485,241.1,485z"/>
	<path class="st1" d="M241.1,357h-96c-4.8,0-8,3.2-8,8s3.2,8,8,8h96c4.8,0,8-3.2,8-8S245.9,357,241.1,357z"/>
	<path class="st1" d="M185.1,461c0-4.8-3.2-8-8-8h-160c-4.8,0-8,3.2-8,8s3.2,8,8,8h160C181.9,469,185.1,465.8,185.1,461z"/>
	<path class="st1" d="M241.1,453h-32c-4.8,0-8,3.2-8,8s3.2,8,8,8h32c4.8,0,8-3.2,8-8S245.9,453,241.1,453z"/>
	<path class="st1" d="M145.1,309h32c4.8,0,8-3.2,8-8s-3.2-8-8-8h-32c-4.8,0-8,3.2-8,8S140.3,309,145.1,309z"/>
	<path class="st1" d="M241.1,293h-32c-4.8,0-8,3.2-8,8s3.2,8,8,8h32c4.8,0,8-3.2,8-8S245.9,293,241.1,293z"/>
	<path class="st1" d="M241.1,421h-96c-4.8,0-8,3.2-8,8s3.2,8,8,8h96c4.8,0,8-3.2,8-8S245.9,421,241.1,421z"/>
</g>
</svg>
