<?xml version="1.0" encoding="utf-8"?>
<!-- Generator: Adobe Illustrator 19.0.0, SVG Export Plug-In . SVG Version: 6.00 Build 0)  -->
<svg version="1.1" id="Capa_1" xmlns="http://www.w3.org/2000/svg" xmlns:xlink="http://www.w3.org/1999/xlink" x="0px" y="0px"
	 viewBox="-61 153 488 488" style="enable-background:new -61 153 488 488;" xml:space="preserve">
<style type="text/css">
	.st0{fill:#00F2A9;}
	.st1{fill:#4C616D;}
</style>
<path class="st0" d="M23,251.4v146.4c0,72.8,32.8,141.6,90.4,187.2l69.6,56l69.6-56c57.6-45.6,90.4-114.4,90.4-187.2V251.4
	c0-15.2-10.4-28-25.6-31.2L183,193L48.6,220.2C33.4,222.6,23,236.2,23,251.4z M55,269.8c0-7.2,4.8-13.6,12-15.2L183,225l116,28.8
	c7.2,1.6,12,8,12,15.2v116c0,70.4-33.6,136.8-89.6,179.2L183,593l-38.4-28.8C88.6,521.8,55,455.4,55,385V269.8z"/>
<g>
	<path class="st1" d="M184.6,153C184.6,153,183.8,153,184.6,153c-0.8,0-1.6,0-1.6,0h-0.8h-0.8L47,180.2c-18.4,4-32,20-32,39.2v146.4
		c0,76,33.6,146.4,92.8,193.6l69.6,56l0.8,0.8c0,0,0.8,0,0.8,0.8c0.8,0,1.6,0.8,3.2,0.8c0.8,0,1.6,0,3.2-0.8c0,0,0.8,0,0.8-0.8
		c0,0,0.8,0,0.8-0.8l69.6-56c60.8-47.2,94.4-117.6,94.4-193.6V219.4c0-19.2-13.6-35.2-32-39.2L184.6,153z M335,219.4v146.4
		c0,71.2-32,136.8-87.2,180.8L191,592.2V565l35.2-26.4C284.6,495.4,319,425.8,319,353v-64c0-4.8-3.2-8-8-8s-8,3.2-8,8v64
		c0,68-32,132-86.4,172.8l-38.4,28.8c-2.4,1.6-3.2,4-3.2,6.4v31.2l-56.8-45.6C63,502.6,31,436.2,31,365.8V219.4
		c0-11.2,8-21.6,19.2-23.2L175,170.6v16L65.4,213.8C54.2,217,47,226.6,47,237.8V353c0,72.8,34.4,142.4,92.8,185.6
		c1.6,0.8,3.2,1.6,4.8,1.6c2.4,0,4.8-0.8,6.4-3.2c2.4-3.2,1.6-8.8-1.6-11.2C95,485,63,421,63,353V237.8c0-4,2.4-7.2,6.4-8L183,201
		l113.6,28.8c3.2,0.8,6.4,4,6.4,8V257c0,4.8,3.2,8,8,8s8-3.2,8-8v-19.2c0-11.2-7.2-20.8-18.4-23.2l-109.6-28v-16l124.8,24.8
		C327,197.8,335,208.2,335,219.4z"/>
	<path class="st1" d="M209.4,315.4l-64,64c-3.2,3.2-3.2,8,0,11.2c1.6,1.6,4,2.4,5.6,2.4s4-0.8,5.6-2.4l64-64c3.2-3.2,3.2-8,0-11.2
		S212.6,312.2,209.4,315.4z"/>
	<path class="st1" d="M151,361c2.4,0,4-0.8,5.6-2.4l32-32c3.2-3.2,3.2-8,0-11.2c-3.2-3.2-8-3.2-11.2,0l-32,32c-3.2,3.2-3.2,8,0,11.2
		C147,360.2,148.6,361,151,361z"/>
	<path class="st1" d="M209.4,347.4l-32,32c-3.2,3.2-3.2,8,0,11.2c1.6,1.6,4,2.4,5.6,2.4s4-0.8,5.6-2.4l32-32c3.2-3.2,3.2-8,0-11.2
		S212.6,344.2,209.4,347.4z"/>
</g>
</svg>
