<?xml version="1.0" encoding="utf-8"?>
<!-- Generator: Adobe Illustrator 19.0.0, SVG Export Plug-In . SVG Version: 6.00 Build 0)  -->
<svg version="1.1" id="Capa_1" xmlns="http://www.w3.org/2000/svg" xmlns:xlink="http://www.w3.org/1999/xlink" x="0px" y="0px"
	 viewBox="-73 164.9 464.1 464.1" style="enable-background:new -73 164.9 464.1 464.1;" xml:space="preserve">
<style type="text/css">
	.st0{fill:#00F2A9;}
	.st1{fill:#4C616D;}
</style>
<circle class="st0" cx="159" cy="493" r="96"/>
<g>
	<path class="st1" d="M4.6,626.6L31,600.2l26.4,26.4c3.2,3.2,8,3.2,11.2,0L95,600.2l26.4,26.4c3.2,3.2,8,3.2,11.2,0l26.4-26.4
		l26.4,26.4c3.2,3.2,8,3.2,11.2,0l26.4-26.4l26.4,26.4c3.2,3.2,8,3.2,11.2,0l26.4-26.4l26.4,26.4c1.6,1.6,3.2,2.4,5.6,2.4
		c0.8,0,2.4,0,3.2-0.8c3.2-1.6,4.8-4,4.8-7.2V173c0-3.2-1.6-6.4-4.8-7.2c-3.2-1.6-6.4-0.8-8.8,1.6L287,193.8l-26.4-26.4
		c-3.2-3.2-8-3.2-11.2,0L223,193.8l-26.4-26.4c-3.2-3.2-8-3.2-11.2,0L159,193.8l-26.4-26.4c-3.2-3.2-8-3.2-11.2,0L95,193.8
		l-26.4-26.4c-3.2-3.2-8-3.2-11.2,0L31,193.8L4.6,167.4c-2.4-2.4-5.6-3.2-8.8-1.6c-3.2,0.8-4.8,4-4.8,7.2v448c0,3.2,1.6,6.4,4.8,7.2
		C-1,629.8,2.2,629,4.6,626.6z M7,192.2l18.4,18.4c3.2,3.2,8,3.2,11.2,0L63,184.2l26.4,26.4c3.2,3.2,8,3.2,11.2,0l26.4-26.4
		l26.4,26.4c3.2,3.2,8,3.2,11.2,0l26.4-26.4l26.4,26.4c3.2,3.2,8,3.2,11.2,0l26.4-26.4l26.4,26.4c3.2,3.2,8,3.2,11.2,0l18.4-18.4
		v409.6l-18.4-18.4c-3.2-3.2-8-3.2-11.2,0L255,609.8l-26.4-26.4c-1.6-1.6-3.2-2.4-5.6-2.4s-4,0.8-5.6,2.4L191,609.8l-26.4-26.4
		c-3.2-3.2-8-3.2-11.2,0L127,609.8l-26.4-26.4c-3.2-3.2-8-3.2-11.2,0L63,609.8l-26.4-26.4c-3.2-3.2-8-3.2-11.2,0L7,601.8L7,192.2
		L7,192.2z"/>
	<path class="st1" d="M159,565c57.6,0,104-46.4,104-104s-46.4-104-104-104S55,403.4,55,461S101.4,565,159,565z M159,373
		c48.8,0,88,39.2,88,88s-39.2,88-88,88s-88-39.2-88-88S110.2,373,159,373z"/>
	<path class="st1" d="M63,245h128c4.8,0,8-3.2,8-8s-3.2-8-8-8H63c-4.8,0-8,3.2-8,8S58.2,245,63,245z"/>
	<path class="st1" d="M223,245h32c4.8,0,8-3.2,8-8s-3.2-8-8-8h-32c-4.8,0-8,3.2-8,8S218.2,245,223,245z"/>
	<path class="st1" d="M63,277h32c4.8,0,8-3.2,8-8c0-4.8-3.2-8-8-8H63c-4.8,0-8,3.2-8,8C55,273.8,58.2,277,63,277z"/>
	<path class="st1" d="M255,261H127c-4.8,0-8,3.2-8,8c0,4.8,3.2,8,8,8h128c4.8,0,8-3.2,8-8C263,264.2,259.8,261,255,261z"/>
	<path class="st1" d="M63,309h96c4.8,0,8-3.2,8-8c0-4.8-3.2-8-8-8H63c-4.8,0-8,3.2-8,8C55,305.8,58.2,309,63,309z"/>
	<path class="st1" d="M255,293h-64c-4.8,0-8,3.2-8,8c0,4.8,3.2,8,8,8h64c4.8,0,8-3.2,8-8C263,296.2,259.8,293,255,293z"/>
	<path class="st1" d="M175,485h-48c-4.8,0-8,3.2-8,8s3.2,8,8,8h24v24c0,4.8,3.2,8,8,8s8-3.2,8-8v-24h8c13.6,0,24-10.4,24-24
		s-10.4-24-24-24h-32c-4.8,0-8-3.2-8-8s3.2-8,8-8h48c4.8,0,8-3.2,8-8s-3.2-8-8-8h-24v-24c0-4.8-3.2-8-8-8s-8,3.2-8,8v24h-8
		c-13.6,0-24,10.4-24,24s10.4,24,24,24h32c4.8,0,8,3.2,8,8S179.8,485,175,485z"/>
	<path class="st1" d="M63,341h192c4.8,0,8-3.2,8-8c0-4.8-3.2-8-8-8H63c-4.8,0-8,3.2-8,8C55,337.8,58.2,341,63,341z"/>
</g>
</svg>
