<?xml version="1.0" encoding="utf-8"?>
<!-- Generator: Adobe Illustrator 19.0.0, SVG Export Plug-In . SVG Version: 6.00 Build 0)  -->
<svg version="1.1" id="Capa_1" xmlns="http://www.w3.org/2000/svg" xmlns:xlink="http://www.w3.org/1999/xlink" x="0px" y="0px"
	 viewBox="-73 165 464 464" style="enable-background:new -73 165 464 464;" xml:space="preserve">
<style type="text/css">
	.st0{fill:#00F2A9;}
	.st1{fill:#4C616D;}
</style>
<path class="st0" d="M347.8,450.6l0.8-1.6c1.6-4.8,2.4-10.4,2.4-16c0-26.4-21.6-48-48-48c-6.4,0-13.6,1.6-19.2,4v-1.6
	c-13.6-56-64-98.4-124.8-98.4c-36.8,0-70.4,16-93.6,40.8l-0.8,0.8C55,324.2,43,321,31,321c-35.2,0-64,28.8-64,64
	c0,12.8,4,24.8,10.4,34.4l0.8,0.8C-47.4,429-65,453-65,481c0,35.2,28.8,64,64,64h336c26.4,0,48-21.6,48-48
	C383,474.6,367.8,456.2,347.8,450.6z"/>
<g>
	<path class="st1" d="M357.4,413.8c0.8-4,1.6-8,1.6-12.8c0-31.2-24.8-56-56-56c-4.8,0-9.6,0.8-13.6,1.6C272.6,289,219.8,249,159,249
		c-36,0-70.4,14.4-96,40c-9.6-4.8-20.8-8-32-8c-40,0-72,32-72,72c0,11.2,2.4,21.6,7.2,32C-57,397-73,421-73,449c0,40,32,72,72,72
		h336c31.2,0,56-24.8,56-56C391,441.8,377.4,422.6,357.4,413.8z M335,505H-1c-31.2,0-56-24.8-56-56s24.8-56,56-56c4.8,0,8-3.2,8-8
		s-3.2-8-8-8c-5.6,0-12,0.8-17.6,2.4c-4-8-6.4-16.8-6.4-26.4c0-31.2,24.8-56,56-56s56,24.8,56,56c0,4.8,3.2,8,8,8s8-3.2,8-8
		c0-22.4-10.4-42.4-26.4-55.2C99,277,128.6,265,159,265c54.4,0,100.8,36,115.2,88c-16.8,9.6-27.2,28-27.2,48c0,4.8,3.2,8,8,8
		s8-3.2,8-8c0-22.4,17.6-40,40-40s40,17.6,40,40c0,3.2-0.8,5.6-0.8,8.8c-2.4-0.8-4.8-0.8-7.2-0.8c-4.8,0-8,3.2-8,8s3.2,8,8,8
		c22.4,0,40,17.6,40,40S357.4,505,335,505z"/>
	<path class="st1" d="M31,313c-4.8,0-8,3.2-8,8s3.2,8,8,8c13.6,0,24,10.4,24,24c0,4.8,3.2,8,8,8s8-3.2,8-8C71,330.6,53.4,313,31,313
		z"/>
	<path class="st1" d="M-1,473c-13.6,0-24-10.4-24-24c0-4.8-3.2-8-8-8s-8,3.2-8,8c0,22.4,17.6,40,40,40c4.8,0,8-3.2,8-8
		S3.8,473-1,473z"/>
	<path class="st1" d="M158.2,404.2l8-16c0.8-0.8,0.8-1.6,0.8-2.4V385c0-0.8,0-1.6,0-2.4l0,0c0-0.8,0-0.8-0.8-1.6c0,0,0-0.8-0.8-0.8
		c0,0,0,0-0.8-0.8s-1.6-1.6-2.4-1.6l0,0l-16-8c-4-1.6-8.8,0-10.4,3.2c-1.6,3.2-0.8,7.2,2.4,9.6c-2.4,1.6-4.8,3.2-7.2,5.6
		c-8,8-12,18.4-12,28.8s4,20.8,12,28c1.6,1.6,4,2.4,5.6,2.4s4-0.8,5.6-2.4c3.2-3.2,3.2-8,0-11.2c-4.8-4-7.2-10.4-7.2-16.8
		c0-6.4,2.4-12.8,7.2-16.8c0-0.8,0.8-0.8,1.6-0.8c-0.8,4,0.8,7.2,4,9.6C151,409.8,155.8,408.2,158.2,404.2z"/>
	<path class="st1" d="M175.8,387.4c-3.2,3.2-3.2,8,0,11.2c9.6,9.6,9.6,24.8,0,33.6c0,0.8-0.8,0.8-0.8,1.6c0.8-4-0.8-7.2-4-9.6
		c-4-1.6-8.8,0-10.4,3.2l-8,16c-0.8,0.8-0.8,1.6-0.8,2.4v0.8c0,0.8,0,1.6,0,2.4l0,0c0,0.8,0,0.8,0.8,1.6c0,0,0,0.8,0.8,0.8
		c0,0,0,0,0.8,0.8s1.6,1.6,2.4,1.6l0,0l16,8c0.8,0.8,2.4,0.8,3.2,0.8c3.2,0,5.6-1.6,7.2-4.8c1.6-3.2,0.8-7.2-2.4-9.6
		c2.4-1.6,4.8-3.2,7.2-5.6c15.2-15.2,15.2-40.8,0-56.8C183.8,384.2,179,384.2,175.8,387.4z"/>
</g>
</svg>
